<svg width="172" height="132" viewBox="0 0 172 132" fill="none" xmlns="http://www.w3.org/2000/svg">
<path d="M125.617 0.0602112C127.825 5.11268 129.301 13.5694 127.137 19.7327C135.923 27.2862 139.033 45.5972 134.719 60.633C147.311 61.615 162.297 60.1887 172 64.0444C162.941 62.8761 150.543 60.6045 138.911 61.3714C136.704 61.5362 133.386 61.2855 133.551 64.3959C147.124 65.4779 160.562 66.5962 171.642 70.0717C160.598 68.28 147.275 65.5567 133.551 65.1552C127.961 76.2778 116.558 81.7961 100.821 82.9572C102.505 86.6482 105.801 88.0169 106.532 94.001C107.708 102.78 104.777 115.701 107.686 121.586C109.148 124.424 111.492 124.466 113.033 126.839C109.184 131.469 99.631 126.337 98.5774 121.586C96.7285 113.366 101.415 100.63 96.2699 95.0617C96.6281 104.006 94.213 116.59 96.6281 124.61C97.6313 127.778 100.462 128.967 99.7385 131.827C81.8218 133.654 89.3109 108.671 86.3656 93.9294C83.6783 94.1801 84.8534 97.957 84.8462 99.5984C84.7747 114.025 87.7919 133.712 72.3118 131.812C71.8388 128.81 74.4118 127.778 75.3575 124.975C78.2028 116.906 74.8345 104.816 76.1172 95.0617C70.2119 99.5624 76.7621 115.085 73.0856 123.105C70.9856 127.663 64.1702 129.677 58.9886 127.656C59.6623 124.251 63.1954 124.782 64.7004 121.586C66.7932 117.106 64.7076 110.707 65.4529 104.142C54.5095 106.335 46.0312 103.826 41.8532 96.9394C40.0114 93.8794 39.5669 90.21 37.3093 87.5082C35.109 84.7921 31.5187 84.4482 30.4436 80.7428C44.0244 77.4389 44.5333 94.6891 56.7239 95.0617C60.4792 95.2121 62.4069 94.0154 65.8612 93.2056C66.85 88.8485 68.8928 85.6377 71.9313 83.3158C56.7954 81.2806 44.2823 76.5576 38.4701 65.1628C24.6958 65.8437 12.0894 67.6854 0.379133 70.5019C11.0074 66.6606 24.0505 65.2487 38.0687 64.8117C37.223 59.8452 29.999 61.2067 25.5271 61.379C17.1498 61.715 6.63626 62.7826 0 64.0441C9.6463 60.6114 23.1052 61.0412 36.1342 61.0125C32.1637 48.5065 33.5327 28.6337 42.2546 21.2233C39.7892 15.0169 40.556 4.91196 43.7596 0.0602112C53.4847 0.482869 59.3616 4.69721 65.4817 8.78206C73.0424 6.6177 80.9617 5.5285 91.3462 6.10188C95.7105 6.3454 100.233 8.29502 103.479 8.01553C106.683 7.70006 110.216 4.09542 113.384 2.67637C117.447 0.898691 120.923 0.217764 125.617 0.0602112Z" fill="white"/>
</svg>
